<svg width="406" height="182" viewBox="0 0 406 182" fill="none" xmlns="http://www.w3.org/2000/svg">
<circle cx="11.794" cy="107.146" r="11.794" fill="#DD8C5C"/>
<circle cx="11.794" cy="107.146" r="11.544" stroke="black" stroke-opacity="0.5" stroke-width="0.5"/>
<circle cx="11.794" cy="107.146" r="11.544" stroke="black" stroke-opacity="0.2" stroke-width="0.5"/>
<circle cx="11.794" cy="32.2194" r="11.794" fill="#DD8C5C"/>
<circle cx="11.794" cy="32.2194" r="11.544" stroke="black" stroke-opacity="0.5" stroke-width="0.5"/>
<circle cx="11.794" cy="32.2194" r="11.544" stroke="black" stroke-opacity="0.2" stroke-width="0.5"/>
<path d="M23.5879 144.609C23.5879 151.122 18.3076 156.403 11.794 156.403C5.28033 156.403 0 151.122 0 144.609C0 138.095 5.28033 132.815 11.794 132.815C18.3076 132.815 23.5879 138.095 23.5879 144.609Z" fill="#F7CCAB"/>
<path d="M23.3379 144.609C23.3379 150.984 18.1695 156.153 11.794 156.153C5.4184 156.153 0.25 150.984 0.25 144.609C0.25 138.233 5.4184 133.065 11.794 133.065C18.1695 133.065 23.3379 138.233 23.3379 144.609Z" stroke="black" stroke-opacity="0.5" stroke-width="0.5"/>
<path d="M23.3379 144.609C23.3379 150.984 18.1695 156.153 11.794 156.153C5.4184 156.153 0.25 150.984 0.25 144.609C0.25 138.233 5.4184 133.065 11.794 133.065C18.1695 133.065 23.3379 138.233 23.3379 144.609Z" stroke="black" stroke-opacity="0.2" stroke-width="0.5"/>
<circle cx="11.794" cy="69.6825" r="11.794" fill="#F7CCAB"/>
<circle cx="11.794" cy="69.6825" r="11.544" stroke="black" stroke-opacity="0.5" stroke-width="0.5"/>
<circle cx="11.794" cy="69.6825" r="11.544" stroke="black" stroke-opacity="0.2" stroke-width="0.5"/>
<circle cx="54.8073" cy="89.1079" r="11.794" fill="#DD8C5C"/>
<circle cx="54.8073" cy="89.1079" r="11.544" stroke="black" stroke-opacity="0.5" stroke-width="0.5"/>
<circle cx="54.8073" cy="89.1079" r="11.544" stroke="black" stroke-opacity="0.2" stroke-width="0.5"/>
<circle cx="54.8073" cy="14.1815" r="11.794" fill="#DD8C5C"/>
<circle cx="54.8073" cy="14.1815" r="11.544" stroke="black" stroke-opacity="0.5" stroke-width="0.5"/>
<circle cx="54.8073" cy="14.1815" r="11.544" stroke="black" stroke-opacity="0.2" stroke-width="0.5"/>
<path d="M66.6012 126.571C66.6012 133.085 61.3209 138.365 54.8073 138.365C48.2936 138.365 43.0133 133.085 43.0133 126.571C43.0133 120.057 48.2936 114.777 54.8073 114.777C61.3209 114.777 66.6012 120.057 66.6012 126.571Z" fill="#F7CCAB"/>
<path d="M66.3512 126.571C66.3512 132.947 61.1828 138.115 54.8073 138.115C48.4317 138.115 43.2633 132.947 43.2633 126.571C43.2633 120.195 48.4317 115.027 54.8073 115.027C61.1828 115.027 66.3512 120.195 66.3512 126.571Z" stroke="black" stroke-opacity="0.5" stroke-width="0.5"/>
<path d="M66.3512 126.571C66.3512 132.947 61.1828 138.115 54.8073 138.115C48.4317 138.115 43.2633 132.947 43.2633 126.571C43.2633 120.195 48.4317 115.027 54.8073 115.027C61.1828 115.027 66.3512 120.195 66.3512 126.571Z" stroke="black" stroke-opacity="0.2" stroke-width="0.5"/>
<circle cx="54.8073" cy="51.6447" r="11.794" fill="#F7CCAB"/>
<circle cx="54.8073" cy="51.6447" r="11.544" stroke="black" stroke-opacity="0.5" stroke-width="0.5"/>
<circle cx="54.8073" cy="51.6447" r="11.544" stroke="black" stroke-opacity="0.2" stroke-width="0.5"/>
<circle cx="140.834" cy="132.121" r="11.794" fill="#DD8C5C"/>
<circle cx="140.834" cy="132.121" r="11.544" stroke="black" stroke-opacity="0.5" stroke-width="0.5"/>
<circle cx="140.834" cy="132.121" r="11.544" stroke="black" stroke-opacity="0.2" stroke-width="0.5"/>
<circle cx="140.834" cy="57.1948" r="11.794" fill="#DD8C5C"/>
<circle cx="140.834" cy="57.1948" r="11.544" stroke="black" stroke-opacity="0.5" stroke-width="0.5"/>
<circle cx="140.834" cy="57.1948" r="11.544" stroke="black" stroke-opacity="0.2" stroke-width="0.5"/>
<path d="M152.628 169.584C152.628 176.098 147.348 181.378 140.834 181.378C134.32 181.378 129.04 176.098 129.04 169.584C129.04 163.071 134.32 157.79 140.834 157.79C147.348 157.79 152.628 163.071 152.628 169.584Z" fill="#F7CCAB"/>
<path d="M152.378 169.584C152.378 175.96 147.21 181.128 140.834 181.128C134.458 181.128 129.29 175.96 129.29 169.584C129.29 163.209 134.458 158.04 140.834 158.04C147.21 158.04 152.378 163.209 152.378 169.584Z" stroke="black" stroke-opacity="0.5" stroke-width="0.5"/>
<path d="M152.378 169.584C152.378 175.96 147.21 181.128 140.834 181.128C134.458 181.128 129.29 175.96 129.29 169.584C129.29 163.209 134.458 158.04 140.834 158.04C147.21 158.04 152.378 163.209 152.378 169.584Z" stroke="black" stroke-opacity="0.2" stroke-width="0.5"/>
<circle cx="140.834" cy="94.6579" r="11.794" fill="#F7CCAB"/>
<circle cx="140.834" cy="94.6579" r="11.544" stroke="black" stroke-opacity="0.5" stroke-width="0.5"/>
<circle cx="140.834" cy="94.6579" r="11.544" stroke="black" stroke-opacity="0.2" stroke-width="0.5"/>
<circle cx="181.072" cy="107.146" r="11.794" fill="#DD8C5C"/>
<circle cx="181.072" cy="107.146" r="11.544" stroke="black" stroke-opacity="0.5" stroke-width="0.5"/>
<circle cx="181.072" cy="107.146" r="11.544" stroke="black" stroke-opacity="0.2" stroke-width="0.5"/>
<circle cx="181.072" cy="32.2194" r="11.794" fill="#DD8C5C"/>
<circle cx="181.072" cy="32.2194" r="11.544" stroke="black" stroke-opacity="0.5" stroke-width="0.5"/>
<circle cx="181.072" cy="32.2194" r="11.544" stroke="black" stroke-opacity="0.2" stroke-width="0.5"/>
<path d="M192.866 144.609C192.866 151.122 187.586 156.403 181.072 156.403C174.559 156.403 169.278 151.122 169.278 144.609C169.278 138.095 174.559 132.815 181.072 132.815C187.586 132.815 192.866 138.095 192.866 144.609Z" fill="#F7CCAB"/>
<path d="M192.616 144.609C192.616 150.984 187.448 156.153 181.072 156.153C174.697 156.153 169.528 150.984 169.528 144.609C169.528 138.233 174.697 133.065 181.072 133.065C187.448 133.065 192.616 138.233 192.616 144.609Z" stroke="black" stroke-opacity="0.5" stroke-width="0.5"/>
<path d="M192.616 144.609C192.616 150.984 187.448 156.153 181.072 156.153C174.697 156.153 169.528 150.984 169.528 144.609C169.528 138.233 174.697 133.065 181.072 133.065C187.448 133.065 192.616 138.233 192.616 144.609Z" stroke="black" stroke-opacity="0.2" stroke-width="0.5"/>
<circle cx="181.072" cy="69.6825" r="11.794" fill="#F7CCAB"/>
<circle cx="181.072" cy="69.6825" r="11.544" stroke="black" stroke-opacity="0.5" stroke-width="0.5"/>
<circle cx="181.072" cy="69.6825" r="11.544" stroke="black" stroke-opacity="0.2" stroke-width="0.5"/>
<circle cx="96.4327" cy="107.146" r="11.794" fill="#DD8C5C"/>
<circle cx="96.4327" cy="107.146" r="11.544" stroke="black" stroke-opacity="0.5" stroke-width="0.5"/>
<circle cx="96.4327" cy="107.146" r="11.544" stroke="black" stroke-opacity="0.2" stroke-width="0.5"/>
<circle cx="96.4329" cy="32.2194" r="11.794" fill="#DD8C5C"/>
<circle cx="96.4329" cy="32.2194" r="11.544" stroke="black" stroke-opacity="0.5" stroke-width="0.5"/>
<circle cx="96.4329" cy="32.2194" r="11.544" stroke="black" stroke-opacity="0.2" stroke-width="0.5"/>
<path d="M108.227 144.609C108.227 151.122 102.946 156.403 96.4327 156.403C89.9191 156.403 84.6388 151.122 84.6388 144.609C84.6388 138.095 89.9191 132.815 96.4327 132.815C102.946 132.815 108.227 138.095 108.227 144.609Z" fill="#F7CCAB"/>
<path d="M107.977 144.609C107.977 150.984 102.808 156.153 96.4327 156.153C90.0572 156.153 84.8888 150.984 84.8888 144.609C84.8888 138.233 90.0572 133.065 96.4327 133.065C102.808 133.065 107.977 138.233 107.977 144.609Z" stroke="black" stroke-opacity="0.5" stroke-width="0.5"/>
<path d="M107.977 144.609C107.977 150.984 102.808 156.153 96.4327 156.153C90.0572 156.153 84.8888 150.984 84.8888 144.609C84.8888 138.233 90.0572 133.065 96.4327 133.065C102.808 133.065 107.977 138.233 107.977 144.609Z" stroke="black" stroke-opacity="0.2" stroke-width="0.5"/>
<circle cx="96.4327" cy="69.6825" r="11.794" fill="#F7CCAB"/>
<circle cx="96.4327" cy="69.6825" r="11.544" stroke="black" stroke-opacity="0.5" stroke-width="0.5"/>
<circle cx="96.4327" cy="69.6825" r="11.544" stroke="black" stroke-opacity="0.2" stroke-width="0.5"/>
<path fill-rule="evenodd" clip-rule="evenodd" d="M300.565 33.7434C279.377 3.03574 234.009 3.03574 212.82 33.7434C211.297 35.951 208.273 36.5058 206.065 34.9825C203.857 33.4593 203.303 30.4349 204.826 28.2274C229.875 -8.07579 283.51 -8.07579 308.559 28.2274C329.748 58.935 375.116 58.935 396.304 28.2274C397.827 26.0198 400.852 25.465 403.059 26.9882C405.267 28.5115 405.822 31.5359 404.299 33.7434C379.249 70.0466 325.614 70.0466 300.565 33.7434Z" fill="#0E5C86"/>
<path fill-rule="evenodd" clip-rule="evenodd" d="M300.565 33.7434C279.377 3.03574 234.009 3.03574 212.82 33.7434C211.297 35.951 208.273 36.5058 206.065 34.9825C203.857 33.4593 203.303 30.4349 204.826 28.2274C229.875 -8.07579 283.51 -8.07579 308.559 28.2274C329.748 58.935 375.116 58.935 396.304 28.2274C397.827 26.0198 400.852 25.465 403.059 26.9882C405.267 28.5115 405.822 31.5359 404.299 33.7434C379.249 70.0466 325.614 70.0466 300.565 33.7434Z" stroke="black" stroke-opacity="0.5" stroke-width="0.5" stroke-linecap="round"/>
<path fill-rule="evenodd" clip-rule="evenodd" d="M300.565 33.7434C279.377 3.03574 234.009 3.03574 212.82 33.7434C211.297 35.951 208.273 36.5058 206.065 34.9825C203.857 33.4593 203.303 30.4349 204.826 28.2274C229.875 -8.07579 283.51 -8.07579 308.559 28.2274C329.748 58.935 375.116 58.935 396.304 28.2274C397.827 26.0198 400.852 25.465 403.059 26.9882C405.267 28.5115 405.822 31.5359 404.299 33.7434C379.249 70.0466 325.614 70.0466 300.565 33.7434Z" stroke="black" stroke-opacity="0.2" stroke-width="0.5" stroke-linecap="round"/>
<path fill-rule="evenodd" clip-rule="evenodd" d="M300.565 73.9816C279.377 43.2739 234.009 43.2739 212.82 73.9816C211.297 76.1892 208.273 76.7439 206.065 75.2207C203.857 73.6975 203.303 70.6731 204.826 68.4655C229.875 32.1624 283.51 32.1624 308.559 68.4655C329.748 99.1732 375.116 99.1732 396.304 68.4655C397.827 66.258 400.852 65.7032 403.059 67.2264C405.267 68.7496 405.822 71.774 404.299 73.9816C379.249 110.285 325.614 110.285 300.565 73.9816Z" fill="#E2F0D3"/>
<path fill-rule="evenodd" clip-rule="evenodd" d="M300.565 73.9816C279.377 43.2739 234.009 43.2739 212.82 73.9816C211.297 76.1892 208.273 76.7439 206.065 75.2207C203.857 73.6975 203.303 70.6731 204.826 68.4655C229.875 32.1624 283.51 32.1624 308.559 68.4655C329.748 99.1732 375.116 99.1732 396.304 68.4655C397.827 66.258 400.852 65.7032 403.059 67.2264C405.267 68.7496 405.822 71.774 404.299 73.9816C379.249 110.285 325.614 110.285 300.565 73.9816Z" stroke="black" stroke-opacity="0.5" stroke-width="0.5" stroke-linecap="round"/>
<path fill-rule="evenodd" clip-rule="evenodd" d="M300.565 73.9816C279.377 43.2739 234.009 43.2739 212.82 73.9816C211.297 76.1892 208.273 76.7439 206.065 75.2207C203.857 73.6975 203.303 70.6731 204.826 68.4655C229.875 32.1624 283.51 32.1624 308.559 68.4655C329.748 99.1732 375.116 99.1732 396.304 68.4655C397.827 66.258 400.852 65.7032 403.059 67.2264C405.267 68.7496 405.822 71.774 404.299 73.9816C379.249 110.285 325.614 110.285 300.565 73.9816Z" stroke="black" stroke-opacity="0.2" stroke-width="0.5" stroke-linecap="round"/>
<path fill-rule="evenodd" clip-rule="evenodd" d="M300.565 114.22C279.377 83.5121 234.009 83.5121 212.82 114.22C211.297 116.427 208.273 116.982 206.065 115.459C203.857 113.936 203.303 110.911 204.826 108.704C229.875 72.4005 283.51 72.4005 308.559 108.704C329.748 139.411 375.116 139.411 396.304 108.704C397.827 106.496 400.852 105.941 403.059 107.465C405.267 108.988 405.822 112.012 404.299 114.22C379.249 150.523 325.614 150.523 300.565 114.22Z" fill="#0E5C86"/>
<path fill-rule="evenodd" clip-rule="evenodd" d="M300.565 114.22C279.377 83.5121 234.009 83.5121 212.82 114.22C211.297 116.427 208.273 116.982 206.065 115.459C203.857 113.936 203.303 110.911 204.826 108.704C229.875 72.4005 283.51 72.4005 308.559 108.704C329.748 139.411 375.116 139.411 396.304 108.704C397.827 106.496 400.852 105.941 403.059 107.465C405.267 108.988 405.822 112.012 404.299 114.22C379.249 150.523 325.614 150.523 300.565 114.22Z" stroke="black" stroke-opacity="0.5" stroke-width="0.5" stroke-linecap="round"/>
<path fill-rule="evenodd" clip-rule="evenodd" d="M300.565 114.22C279.377 83.5121 234.009 83.5121 212.82 114.22C211.297 116.427 208.273 116.982 206.065 115.459C203.857 113.936 203.303 110.911 204.826 108.704C229.875 72.4005 283.51 72.4005 308.559 108.704C329.748 139.411 375.116 139.411 396.304 108.704C397.827 106.496 400.852 105.941 403.059 107.465C405.267 108.988 405.822 112.012 404.299 114.22C379.249 150.523 325.614 150.523 300.565 114.22Z" stroke="black" stroke-opacity="0.2" stroke-width="0.5" stroke-linecap="round"/>
<path fill-rule="evenodd" clip-rule="evenodd" d="M300.565 154.458C279.377 123.75 234.009 123.75 212.82 154.458C211.297 156.666 208.273 157.22 206.065 155.697C203.857 154.174 203.303 151.149 204.826 148.942C229.875 112.639 283.51 112.639 308.559 148.942C329.748 179.65 375.116 179.65 396.304 148.942C397.827 146.734 400.852 146.18 403.059 147.703C405.267 149.226 405.822 152.25 404.299 154.458C379.249 190.761 325.614 190.761 300.565 154.458Z" fill="#E2F0D3"/>
<path fill-rule="evenodd" clip-rule="evenodd" d="M300.565 154.458C279.377 123.75 234.009 123.75 212.82 154.458C211.297 156.666 208.273 157.22 206.065 155.697C203.857 154.174 203.303 151.149 204.826 148.942C229.875 112.639 283.51 112.639 308.559 148.942C329.748 179.65 375.116 179.65 396.304 148.942C397.827 146.734 400.852 146.18 403.059 147.703C405.267 149.226 405.822 152.25 404.299 154.458C379.249 190.761 325.614 190.761 300.565 154.458Z" stroke="black" stroke-opacity="0.5" stroke-width="0.5" stroke-linecap="round"/>
<path fill-rule="evenodd" clip-rule="evenodd" d="M300.565 154.458C279.377 123.75 234.009 123.75 212.82 154.458C211.297 156.666 208.273 157.22 206.065 155.697C203.857 154.174 203.303 151.149 204.826 148.942C229.875 112.639 283.51 112.639 308.559 148.942C329.748 179.65 375.116 179.65 396.304 148.942C397.827 146.734 400.852 146.18 403.059 147.703C405.267 149.226 405.822 152.25 404.299 154.458C379.249 190.761 325.614 190.761 300.565 154.458Z" stroke="black" stroke-opacity="0.2" stroke-width="0.5" stroke-linecap="round"/>
<line x1="198.166" y1="181.378" x2="198.166" y2="1" stroke="black" stroke-opacity="0.5" stroke-width="0.5"/>
<line x1="198.166" y1="181.378" x2="198.166" y2="1" stroke="black" stroke-opacity="0.2" stroke-width="0.5"/>
</svg>
